<mxfile host="app.diagrams.net" agent="Mozilla/5.0 (Windows NT 10.0; Win64; x64) AppleWebKit/537.36 (KHTML, like Gecko) Chrome/131.0.0.0 Safari/537.36" version="26.0.3">
  <diagram name="Page-1" id="13e1069c-82ec-6db2-03f1-153e76fe0fe0">
    <mxGraphModel dx="2167" dy="446" grid="1" gridSize="10" guides="1" tooltips="1" connect="1" arrows="1" fold="1" page="1" pageScale="1" pageWidth="1100" pageHeight="850" background="none" math="0" shadow="0">
      <root>
        <mxCell id="0" />
        <mxCell id="1" parent="0" />
        <mxCell id="vljrep-C4WVkItOG9epf-3" value="User" style="swimlane;fontStyle=1;align=center;verticalAlign=top;childLayout=stackLayout;horizontal=1;startSize=30;horizontalStack=0;resizeParent=1;resizeParentMax=0;resizeLast=0;collapsible=1;marginBottom=0;" parent="1" vertex="1">
          <mxGeometry x="40" y="40" width="160" height="350" as="geometry">
            <mxRectangle x="40" y="-20" width="70" height="30" as="alternateBounds" />
          </mxGeometry>
        </mxCell>
        <mxCell id="vljrep-C4WVkItOG9epf-4" value="# username: str" style="text;strokeColor=none;fillColor=none;align=left;verticalAlign=top;spacingLeft=4;spacingRight=4;overflow=hidden;rotatable=0;points=[[0,0.5],[1,0.5]];portConstraint=eastwest;" parent="vljrep-C4WVkItOG9epf-3" vertex="1">
          <mxGeometry y="30" width="160" height="26" as="geometry" />
        </mxCell>
        <mxCell id="vljrep-C4WVkItOG9epf-17" value="# password_hash: str" style="text;strokeColor=none;fillColor=none;align=left;verticalAlign=top;spacingLeft=4;spacingRight=4;overflow=hidden;rotatable=0;points=[[0,0.5],[1,0.5]];portConstraint=eastwest;" parent="vljrep-C4WVkItOG9epf-3" vertex="1">
          <mxGeometry y="56" width="160" height="26" as="geometry" />
        </mxCell>
        <mxCell id="vljrep-C4WVkItOG9epf-16" value="# user_id: int" style="text;strokeColor=none;fillColor=none;align=left;verticalAlign=top;spacingLeft=4;spacingRight=4;overflow=hidden;rotatable=0;points=[[0,0.5],[1,0.5]];portConstraint=eastwest;" parent="vljrep-C4WVkItOG9epf-3" vertex="1">
          <mxGeometry y="82" width="160" height="26" as="geometry" />
        </mxCell>
        <mxCell id="x0EwZhFv20aRiwcRfnRt-32" value="# first_name: str" style="text;strokeColor=none;fillColor=none;align=left;verticalAlign=top;spacingLeft=4;spacingRight=4;overflow=hidden;rotatable=0;points=[[0,0.5],[1,0.5]];portConstraint=eastwest;" parent="vljrep-C4WVkItOG9epf-3" vertex="1">
          <mxGeometry y="108" width="160" height="26" as="geometry" />
        </mxCell>
        <mxCell id="x0EwZhFv20aRiwcRfnRt-33" value="# last_name: str" style="text;strokeColor=none;fillColor=none;align=left;verticalAlign=top;spacingLeft=4;spacingRight=4;overflow=hidden;rotatable=0;points=[[0,0.5],[1,0.5]];portConstraint=eastwest;" parent="vljrep-C4WVkItOG9epf-3" vertex="1">
          <mxGeometry y="134" width="160" height="26" as="geometry" />
        </mxCell>
        <mxCell id="x0EwZhFv20aRiwcRfnRt-34" value="# age: int" style="text;strokeColor=none;fillColor=none;align=left;verticalAlign=top;spacingLeft=4;spacingRight=4;overflow=hidden;rotatable=0;points=[[0,0.5],[1,0.5]];portConstraint=eastwest;" parent="vljrep-C4WVkItOG9epf-3" vertex="1">
          <mxGeometry y="160" width="160" height="26" as="geometry" />
        </mxCell>
        <mxCell id="vljrep-C4WVkItOG9epf-5" value="" style="line;strokeWidth=1;fillColor=none;align=left;verticalAlign=middle;spacingTop=-1;spacingLeft=3;spacingRight=3;rotatable=0;labelPosition=right;points=[];portConstraint=eastwest;strokeColor=inherit;" parent="vljrep-C4WVkItOG9epf-3" vertex="1">
          <mxGeometry y="186" width="160" height="8" as="geometry" />
        </mxCell>
        <mxCell id="vljrep-C4WVkItOG9epf-6" value="+ get_username(): str" style="text;strokeColor=none;fillColor=none;align=left;verticalAlign=top;spacingLeft=4;spacingRight=4;overflow=hidden;rotatable=0;points=[[0,0.5],[1,0.5]];portConstraint=eastwest;" parent="vljrep-C4WVkItOG9epf-3" vertex="1">
          <mxGeometry y="194" width="160" height="26" as="geometry" />
        </mxCell>
        <mxCell id="vljrep-C4WVkItOG9epf-13" value="+ get_password_hash(): str" style="text;strokeColor=none;fillColor=none;align=left;verticalAlign=top;spacingLeft=4;spacingRight=4;overflow=hidden;rotatable=0;points=[[0,0.5],[1,0.5]];portConstraint=eastwest;" parent="vljrep-C4WVkItOG9epf-3" vertex="1">
          <mxGeometry y="220" width="160" height="26" as="geometry" />
        </mxCell>
        <mxCell id="vljrep-C4WVkItOG9epf-14" value="+ get_user_id(): int" style="text;strokeColor=none;fillColor=none;align=left;verticalAlign=top;spacingLeft=4;spacingRight=4;overflow=hidden;rotatable=0;points=[[0,0.5],[1,0.5]];portConstraint=eastwest;" parent="vljrep-C4WVkItOG9epf-3" vertex="1">
          <mxGeometry y="246" width="160" height="26" as="geometry" />
        </mxCell>
        <mxCell id="vljrep-C4WVkItOG9epf-15" value="+ get_first_name(): str" style="text;strokeColor=none;fillColor=none;align=left;verticalAlign=top;spacingLeft=4;spacingRight=4;overflow=hidden;rotatable=0;points=[[0,0.5],[1,0.5]];portConstraint=eastwest;" parent="vljrep-C4WVkItOG9epf-3" vertex="1">
          <mxGeometry y="272" width="160" height="26" as="geometry" />
        </mxCell>
        <mxCell id="x0EwZhFv20aRiwcRfnRt-35" value="+ get_last_name(): str" style="text;strokeColor=none;fillColor=none;align=left;verticalAlign=top;spacingLeft=4;spacingRight=4;overflow=hidden;rotatable=0;points=[[0,0.5],[1,0.5]];portConstraint=eastwest;" parent="vljrep-C4WVkItOG9epf-3" vertex="1">
          <mxGeometry y="298" width="160" height="26" as="geometry" />
        </mxCell>
        <mxCell id="x0EwZhFv20aRiwcRfnRt-36" value="+ get_age(): int" style="text;strokeColor=none;fillColor=none;align=left;verticalAlign=top;spacingLeft=4;spacingRight=4;overflow=hidden;rotatable=0;points=[[0,0.5],[1,0.5]];portConstraint=eastwest;" parent="vljrep-C4WVkItOG9epf-3" vertex="1">
          <mxGeometry y="324" width="160" height="26" as="geometry" />
        </mxCell>
        <mxCell id="PCdt31Q6n0yatBRkWtZ2-3" value="" style="endArrow=block;endSize=16;endFill=0;html=1;rounded=0;entryX=0.492;entryY=1.055;entryDx=0;entryDy=0;entryPerimeter=0;exitX=0.5;exitY=0;exitDx=0;exitDy=0;" parent="1" source="PCdt31Q6n0yatBRkWtZ2-4" target="x0EwZhFv20aRiwcRfnRt-36" edge="1">
          <mxGeometry width="160" relative="1" as="geometry">
            <mxPoint x="130" y="490" as="sourcePoint" />
            <mxPoint x="140" y="410" as="targetPoint" />
            <Array as="points" />
          </mxGeometry>
        </mxCell>
        <mxCell id="PCdt31Q6n0yatBRkWtZ2-4" value="SocialUser" style="swimlane;fontStyle=1;align=center;verticalAlign=top;childLayout=stackLayout;horizontal=1;startSize=26;horizontalStack=0;resizeParent=1;resizeParentMax=0;resizeLast=0;collapsible=1;marginBottom=0;" parent="1" vertex="1">
          <mxGeometry x="40" y="500" width="160" height="320" as="geometry">
            <mxRectangle x="40" y="500" width="100" height="30" as="alternateBounds" />
          </mxGeometry>
        </mxCell>
        <mxCell id="PCdt31Q6n0yatBRkWtZ2-5" value="- friends: list(SocialUser)" style="text;strokeColor=none;fillColor=none;align=left;verticalAlign=top;spacingLeft=4;spacingRight=4;overflow=hidden;rotatable=0;points=[[0,0.5],[1,0.5]];portConstraint=eastwest;" parent="PCdt31Q6n0yatBRkWtZ2-4" vertex="1">
          <mxGeometry y="26" width="160" height="26" as="geometry" />
        </mxCell>
        <mxCell id="PCdt31Q6n0yatBRkWtZ2-15" value="- friend_requests: list(FriendRequest)" style="text;strokeColor=none;fillColor=none;align=left;verticalAlign=top;spacingLeft=4;spacingRight=4;overflow=hidden;rotatable=0;points=[[0,0.5],[1,0.5]];portConstraint=eastwest;" parent="PCdt31Q6n0yatBRkWtZ2-4" vertex="1">
          <mxGeometry y="52" width="160" height="26" as="geometry" />
        </mxCell>
        <mxCell id="x0EwZhFv20aRiwcRfnRt-27" value="- private_chats: dictionary{int, PrivateChat}" style="text;strokeColor=none;fillColor=none;align=left;verticalAlign=top;spacingLeft=4;spacingRight=4;overflow=hidden;rotatable=0;points=[[0,0.5],[1,0.5]];portConstraint=eastwest;" parent="PCdt31Q6n0yatBRkWtZ2-4" vertex="1">
          <mxGeometry y="78" width="160" height="26" as="geometry" />
        </mxCell>
        <mxCell id="x0EwZhFv20aRiwcRfnRt-28" value="- group_chats: dictionary{int, GroupChat}" style="text;strokeColor=none;fillColor=none;align=left;verticalAlign=top;spacingLeft=4;spacingRight=4;overflow=hidden;rotatable=0;points=[[0,0.5],[1,0.5]];portConstraint=eastwest;" parent="PCdt31Q6n0yatBRkWtZ2-4" vertex="1">
          <mxGeometry y="104" width="160" height="26" as="geometry" />
        </mxCell>
        <mxCell id="97uRlA_o4lkvg0xK0UDp-7" value="- chat_handler: ChatHandler" style="text;strokeColor=none;fillColor=none;align=left;verticalAlign=top;spacingLeft=4;spacingRight=4;overflow=hidden;rotatable=0;points=[[0,0.5],[1,0.5]];portConstraint=eastwest;" parent="PCdt31Q6n0yatBRkWtZ2-4" vertex="1">
          <mxGeometry y="130" width="160" height="26" as="geometry" />
        </mxCell>
        <mxCell id="PCdt31Q6n0yatBRkWtZ2-8" value="" style="line;strokeWidth=1;fillColor=none;align=left;verticalAlign=middle;spacingTop=-1;spacingLeft=3;spacingRight=3;rotatable=0;labelPosition=right;points=[];portConstraint=eastwest;strokeColor=inherit;" parent="PCdt31Q6n0yatBRkWtZ2-4" vertex="1">
          <mxGeometry y="156" width="160" height="8" as="geometry" />
        </mxCell>
        <mxCell id="PCdt31Q6n0yatBRkWtZ2-9" value="+ get_friends(): list(SocialUser)" style="text;strokeColor=none;fillColor=none;align=left;verticalAlign=top;spacingLeft=4;spacingRight=4;overflow=hidden;rotatable=0;points=[[0,0.5],[1,0.5]];portConstraint=eastwest;" parent="PCdt31Q6n0yatBRkWtZ2-4" vertex="1">
          <mxGeometry y="164" width="160" height="26" as="geometry" />
        </mxCell>
        <mxCell id="PCdt31Q6n0yatBRkWtZ2-10" value="+ get_pending_friend_requests(): list(SocialUser)" style="text;strokeColor=none;fillColor=none;align=left;verticalAlign=top;spacingLeft=4;spacingRight=4;overflow=hidden;rotatable=0;points=[[0,0.5],[1,0.5]];portConstraint=eastwest;" parent="PCdt31Q6n0yatBRkWtZ2-4" vertex="1">
          <mxGeometry y="190" width="160" height="26" as="geometry" />
        </mxCell>
        <mxCell id="x0EwZhFv20aRiwcRfnRt-29" value="+ new_friend_request(FriendRequest): void" style="text;strokeColor=none;fillColor=none;align=left;verticalAlign=top;spacingLeft=4;spacingRight=4;overflow=hidden;rotatable=0;points=[[0,0.5],[1,0.5]];portConstraint=eastwest;" parent="PCdt31Q6n0yatBRkWtZ2-4" vertex="1">
          <mxGeometry y="216" width="160" height="26" as="geometry" />
        </mxCell>
        <mxCell id="K13tI4WdCBkM2zwI3fLA-9" value="+ accept_friend_request(FriendRequest): void" style="text;strokeColor=none;fillColor=none;align=left;verticalAlign=top;spacingLeft=4;spacingRight=4;overflow=hidden;rotatable=0;points=[[0,0.5],[1,0.5]];portConstraint=eastwest;" parent="PCdt31Q6n0yatBRkWtZ2-4" vertex="1">
          <mxGeometry y="242" width="160" height="26" as="geometry" />
        </mxCell>
        <mxCell id="x0EwZhFv20aRiwcRfnRt-30" value="+ deny_friend_request(FriendRequest): void" style="text;strokeColor=none;fillColor=none;align=left;verticalAlign=top;spacingLeft=4;spacingRight=4;overflow=hidden;rotatable=0;points=[[0,0.5],[1,0.5]];portConstraint=eastwest;" parent="PCdt31Q6n0yatBRkWtZ2-4" vertex="1">
          <mxGeometry y="268" width="160" height="26" as="geometry" />
        </mxCell>
        <mxCell id="x0EwZhFv20aRiwcRfnRt-31" value="+ add_friend(SocialUser): void" style="text;strokeColor=none;fillColor=none;align=left;verticalAlign=top;spacingLeft=4;spacingRight=4;overflow=hidden;rotatable=0;points=[[0,0.5],[1,0.5]];portConstraint=eastwest;" parent="PCdt31Q6n0yatBRkWtZ2-4" vertex="1">
          <mxGeometry y="294" width="160" height="26" as="geometry" />
        </mxCell>
        <mxCell id="K13tI4WdCBkM2zwI3fLA-1" value="FriendRequest" style="swimlane;fontStyle=1;align=center;verticalAlign=top;childLayout=stackLayout;horizontal=1;startSize=26;horizontalStack=0;resizeParent=1;resizeParentMax=0;resizeLast=0;collapsible=1;marginBottom=0;" parent="1" vertex="1">
          <mxGeometry x="360" y="500" width="160" height="242" as="geometry">
            <mxRectangle x="360" y="500" width="120" height="30" as="alternateBounds" />
          </mxGeometry>
        </mxCell>
        <mxCell id="K13tI4WdCBkM2zwI3fLA-3" value="- sender: SocialUser" style="text;strokeColor=none;fillColor=none;align=left;verticalAlign=top;spacingLeft=4;spacingRight=4;overflow=hidden;rotatable=0;points=[[0,0.5],[1,0.5]];portConstraint=eastwest;" parent="K13tI4WdCBkM2zwI3fLA-1" vertex="1">
          <mxGeometry y="26" width="160" height="26" as="geometry" />
        </mxCell>
        <mxCell id="K13tI4WdCBkM2zwI3fLA-2" value="- addressee: SocialUser" style="text;strokeColor=none;fillColor=none;align=left;verticalAlign=top;spacingLeft=4;spacingRight=4;overflow=hidden;rotatable=0;points=[[0,0.5],[1,0.5]];portConstraint=eastwest;" parent="K13tI4WdCBkM2zwI3fLA-1" vertex="1">
          <mxGeometry y="52" width="160" height="26" as="geometry" />
        </mxCell>
        <mxCell id="x0EwZhFv20aRiwcRfnRt-1" value="- status: FriendRequestStatus" style="text;strokeColor=none;fillColor=none;align=left;verticalAlign=top;spacingLeft=4;spacingRight=4;overflow=hidden;rotatable=0;points=[[0,0.5],[1,0.5]];portConstraint=eastwest;" parent="K13tI4WdCBkM2zwI3fLA-1" vertex="1">
          <mxGeometry y="78" width="160" height="26" as="geometry" />
        </mxCell>
        <mxCell id="x0EwZhFv20aRiwcRfnRt-2" value="- request_date: datetime" style="text;strokeColor=none;fillColor=none;align=left;verticalAlign=top;spacingLeft=4;spacingRight=4;overflow=hidden;rotatable=0;points=[[0,0.5],[1,0.5]];portConstraint=eastwest;" parent="K13tI4WdCBkM2zwI3fLA-1" vertex="1">
          <mxGeometry y="104" width="160" height="26" as="geometry" />
        </mxCell>
        <mxCell id="K13tI4WdCBkM2zwI3fLA-4" value="" style="line;strokeWidth=1;fillColor=none;align=left;verticalAlign=middle;spacingTop=-1;spacingLeft=3;spacingRight=3;rotatable=0;labelPosition=right;points=[];portConstraint=eastwest;strokeColor=inherit;" parent="K13tI4WdCBkM2zwI3fLA-1" vertex="1">
          <mxGeometry y="130" width="160" height="8" as="geometry" />
        </mxCell>
        <mxCell id="K13tI4WdCBkM2zwI3fLA-5" value="+ get_sender(): SocialUser" style="text;strokeColor=none;fillColor=none;align=left;verticalAlign=top;spacingLeft=4;spacingRight=4;overflow=hidden;rotatable=0;points=[[0,0.5],[1,0.5]];portConstraint=eastwest;" parent="K13tI4WdCBkM2zwI3fLA-1" vertex="1">
          <mxGeometry y="138" width="160" height="26" as="geometry" />
        </mxCell>
        <mxCell id="K13tI4WdCBkM2zwI3fLA-6" value="+ get_addressee(): SocialUser" style="text;strokeColor=none;fillColor=none;align=left;verticalAlign=top;spacingLeft=4;spacingRight=4;overflow=hidden;rotatable=0;points=[[0,0.5],[1,0.5]];portConstraint=eastwest;" parent="K13tI4WdCBkM2zwI3fLA-1" vertex="1">
          <mxGeometry y="164" width="160" height="26" as="geometry" />
        </mxCell>
        <mxCell id="x0EwZhFv20aRiwcRfnRt-3" value="+ get_status(): FriendRequestStatus" style="text;strokeColor=none;fillColor=none;align=left;verticalAlign=top;spacingLeft=4;spacingRight=4;overflow=hidden;rotatable=0;points=[[0,0.5],[1,0.5]];portConstraint=eastwest;" parent="K13tI4WdCBkM2zwI3fLA-1" vertex="1">
          <mxGeometry y="190" width="160" height="26" as="geometry" />
        </mxCell>
        <mxCell id="x0EwZhFv20aRiwcRfnRt-4" value="+ get_request_date(): datetime" style="text;strokeColor=none;fillColor=none;align=left;verticalAlign=top;spacingLeft=4;spacingRight=4;overflow=hidden;rotatable=0;points=[[0,0.5],[1,0.5]];portConstraint=eastwest;" parent="K13tI4WdCBkM2zwI3fLA-1" vertex="1">
          <mxGeometry y="216" width="160" height="26" as="geometry" />
        </mxCell>
        <mxCell id="x0EwZhFv20aRiwcRfnRt-20" value="&amp;lt;&amp;lt;enum&amp;gt;&amp;gt;&lt;div&gt;FriendRequestStatus&lt;/div&gt;" style="swimlane;fontStyle=1;align=center;verticalAlign=top;childLayout=stackLayout;horizontal=1;startSize=40;horizontalStack=0;resizeParent=1;resizeParentMax=0;resizeLast=0;collapsible=1;marginBottom=0;whiteSpace=wrap;html=1;" parent="1" vertex="1">
          <mxGeometry x="600" y="500" width="158" height="118" as="geometry">
            <mxRectangle x="600" y="440" width="150" height="40" as="alternateBounds" />
          </mxGeometry>
        </mxCell>
        <mxCell id="x0EwZhFv20aRiwcRfnRt-21" value="&lt;span style=&quot;text-wrap-mode: nowrap;&quot;&gt;+ PENDING: FriendRequestStatus&lt;/span&gt;" style="text;strokeColor=none;fillColor=none;align=left;verticalAlign=top;spacingLeft=4;spacingRight=4;overflow=hidden;rotatable=0;points=[[0,0.5],[1,0.5]];portConstraint=eastwest;glass=0;rounded=0;shadow=0;labelBackgroundColor=none;whiteSpace=wrap;html=1;flipH=0;" parent="x0EwZhFv20aRiwcRfnRt-20" vertex="1">
          <mxGeometry y="40" width="158" height="26" as="geometry" />
        </mxCell>
        <mxCell id="x0EwZhFv20aRiwcRfnRt-25" value="&lt;span style=&quot;text-wrap-mode: nowrap;&quot;&gt;+ ACCEPTED:&amp;nbsp;FriendRequestStatus&lt;/span&gt;" style="text;strokeColor=none;fillColor=none;align=left;verticalAlign=top;spacingLeft=4;spacingRight=4;overflow=hidden;rotatable=0;points=[[0,0.5],[1,0.5]];portConstraint=eastwest;glass=0;rounded=0;shadow=0;labelBackgroundColor=none;whiteSpace=wrap;html=1;flipH=0;" parent="x0EwZhFv20aRiwcRfnRt-20" vertex="1">
          <mxGeometry y="66" width="158" height="26" as="geometry" />
        </mxCell>
        <mxCell id="x0EwZhFv20aRiwcRfnRt-24" value="&lt;span style=&quot;text-wrap-mode: nowrap;&quot;&gt;+ DENIED: FriendRequestStatus&lt;/span&gt;" style="text;strokeColor=none;fillColor=none;align=left;verticalAlign=top;spacingLeft=4;spacingRight=4;overflow=hidden;rotatable=0;points=[[0,0.5],[1,0.5]];portConstraint=eastwest;glass=0;rounded=0;shadow=0;labelBackgroundColor=none;whiteSpace=wrap;html=1;flipH=0;" parent="x0EwZhFv20aRiwcRfnRt-20" vertex="1">
          <mxGeometry y="92" width="158" height="26" as="geometry" />
        </mxCell>
        <mxCell id="x0EwZhFv20aRiwcRfnRt-41" value="SongStars" style="swimlane;fontStyle=1;align=center;verticalAlign=top;childLayout=stackLayout;horizontal=1;startSize=26;horizontalStack=0;resizeParent=1;resizeParentMax=0;resizeLast=0;collapsible=1;marginBottom=0;whiteSpace=wrap;html=1;" parent="1" vertex="1">
          <mxGeometry x="-280" y="500" width="160" height="78" as="geometry">
            <mxRectangle x="-280" y="500" width="100" height="30" as="alternateBounds" />
          </mxGeometry>
        </mxCell>
        <mxCell id="x0EwZhFv20aRiwcRfnRt-42" value="+ num_of_stars: int&lt;span style=&quot;white-space: pre;&quot;&gt;&#x9;&lt;/span&gt;&lt;span style=&quot;white-space: pre;&quot;&gt;&#x9;&lt;/span&gt;" style="text;strokeColor=none;fillColor=none;align=left;verticalAlign=top;spacingLeft=4;spacingRight=4;overflow=hidden;rotatable=0;points=[[0,0.5],[1,0.5]];portConstraint=eastwest;whiteSpace=wrap;html=1;" parent="x0EwZhFv20aRiwcRfnRt-41" vertex="1">
          <mxGeometry y="26" width="160" height="26" as="geometry" />
        </mxCell>
        <mxCell id="x0EwZhFv20aRiwcRfnRt-53" value="+ reviewer: SocialUser" style="text;strokeColor=none;fillColor=none;align=left;verticalAlign=top;spacingLeft=4;spacingRight=4;overflow=hidden;rotatable=0;points=[[0,0.5],[1,0.5]];portConstraint=eastwest;whiteSpace=wrap;html=1;" parent="x0EwZhFv20aRiwcRfnRt-41" vertex="1">
          <mxGeometry y="52" width="160" height="26" as="geometry" />
        </mxCell>
        <mxCell id="x0EwZhFv20aRiwcRfnRt-54" value="" style="endArrow=diamondThin;endFill=0;endSize=24;html=1;rounded=0;entryX=1;entryY=0.516;entryDx=0;entryDy=0;entryPerimeter=0;exitX=-0.005;exitY=0.339;exitDx=0;exitDy=0;exitPerimeter=0;" parent="1" source="x0EwZhFv20aRiwcRfnRt-20" target="K13tI4WdCBkM2zwI3fLA-3" edge="1">
          <mxGeometry width="160" relative="1" as="geometry">
            <mxPoint x="590" y="539" as="sourcePoint" />
            <mxPoint x="530" y="539" as="targetPoint" />
          </mxGeometry>
        </mxCell>
        <mxCell id="x0EwZhFv20aRiwcRfnRt-56" value="Song" style="swimlane;fontStyle=1;align=center;verticalAlign=top;childLayout=stackLayout;horizontal=1;startSize=26;horizontalStack=0;resizeParent=1;resizeParentMax=0;resizeLast=0;collapsible=1;marginBottom=0;whiteSpace=wrap;html=1;" parent="1" vertex="1">
          <mxGeometry x="-280" y="620" width="160" height="242" as="geometry">
            <mxRectangle x="-280" y="560" width="70" height="30" as="alternateBounds" />
          </mxGeometry>
        </mxCell>
        <mxCell id="x0EwZhFv20aRiwcRfnRt-57" value="- name: str" style="text;strokeColor=none;fillColor=none;align=left;verticalAlign=top;spacingLeft=4;spacingRight=4;overflow=hidden;rotatable=0;points=[[0,0.5],[1,0.5]];portConstraint=eastwest;whiteSpace=wrap;html=1;" parent="x0EwZhFv20aRiwcRfnRt-56" vertex="1">
          <mxGeometry y="26" width="160" height="26" as="geometry" />
        </mxCell>
        <mxCell id="x0EwZhFv20aRiwcRfnRt-60" value="- song_id_hex_string: str" style="text;strokeColor=none;fillColor=none;align=left;verticalAlign=top;spacingLeft=4;spacingRight=4;overflow=hidden;rotatable=0;points=[[0,0.5],[1,0.5]];portConstraint=eastwest;whiteSpace=wrap;html=1;" parent="x0EwZhFv20aRiwcRfnRt-56" vertex="1">
          <mxGeometry y="52" width="160" height="26" as="geometry" />
        </mxCell>
        <mxCell id="x0EwZhFv20aRiwcRfnRt-63" value="&lt;span style=&quot;text-wrap-mode: nowrap;&quot;&gt;- all_star_reviews: list(SongStars)&lt;/span&gt;" style="text;strokeColor=none;fillColor=none;align=left;verticalAlign=top;spacingLeft=4;spacingRight=4;overflow=hidden;rotatable=0;points=[[0,0.5],[1,0.5]];portConstraint=eastwest;whiteSpace=wrap;html=1;" parent="x0EwZhFv20aRiwcRfnRt-56" vertex="1">
          <mxGeometry y="78" width="160" height="26" as="geometry" />
        </mxCell>
        <mxCell id="x0EwZhFv20aRiwcRfnRt-64" value="&lt;span style=&quot;text-wrap-mode: nowrap;&quot;&gt;- average_star_review: SongStars&lt;/span&gt;" style="text;strokeColor=none;fillColor=none;align=left;verticalAlign=top;spacingLeft=4;spacingRight=4;overflow=hidden;rotatable=0;points=[[0,0.5],[1,0.5]];portConstraint=eastwest;whiteSpace=wrap;html=1;" parent="x0EwZhFv20aRiwcRfnRt-56" vertex="1">
          <mxGeometry y="104" width="160" height="26" as="geometry" />
        </mxCell>
        <mxCell id="x0EwZhFv20aRiwcRfnRt-58" value="" style="line;strokeWidth=1;fillColor=none;align=left;verticalAlign=middle;spacingTop=-1;spacingLeft=3;spacingRight=3;rotatable=0;labelPosition=right;points=[];portConstraint=eastwest;strokeColor=inherit;" parent="x0EwZhFv20aRiwcRfnRt-56" vertex="1">
          <mxGeometry y="130" width="160" height="8" as="geometry" />
        </mxCell>
        <mxCell id="x0EwZhFv20aRiwcRfnRt-59" value="+ get_name(): str" style="text;strokeColor=none;fillColor=none;align=left;verticalAlign=top;spacingLeft=4;spacingRight=4;overflow=hidden;rotatable=0;points=[[0,0.5],[1,0.5]];portConstraint=eastwest;whiteSpace=wrap;html=1;" parent="x0EwZhFv20aRiwcRfnRt-56" vertex="1">
          <mxGeometry y="138" width="160" height="26" as="geometry" />
        </mxCell>
        <mxCell id="x0EwZhFv20aRiwcRfnRt-69" value="&lt;span style=&quot;text-wrap-mode: nowrap;&quot;&gt;+ get_song_id_hex_string(): str&lt;/span&gt;" style="text;strokeColor=none;fillColor=none;align=left;verticalAlign=top;spacingLeft=4;spacingRight=4;overflow=hidden;rotatable=0;points=[[0,0.5],[1,0.5]];portConstraint=eastwest;whiteSpace=wrap;html=1;" parent="x0EwZhFv20aRiwcRfnRt-56" vertex="1">
          <mxGeometry y="164" width="160" height="26" as="geometry" />
        </mxCell>
        <mxCell id="x0EwZhFv20aRiwcRfnRt-73" value="&lt;span style=&quot;text-wrap-mode: nowrap;&quot;&gt;+ get_all_star_reviews(): list(SongStars)&lt;/span&gt;" style="text;strokeColor=none;fillColor=none;align=left;verticalAlign=top;spacingLeft=4;spacingRight=4;overflow=hidden;rotatable=0;points=[[0,0.5],[1,0.5]];portConstraint=eastwest;whiteSpace=wrap;html=1;" parent="x0EwZhFv20aRiwcRfnRt-56" vertex="1">
          <mxGeometry y="190" width="160" height="26" as="geometry" />
        </mxCell>
        <mxCell id="x0EwZhFv20aRiwcRfnRt-74" value="&lt;span style=&quot;text-wrap-mode: nowrap;&quot;&gt;+ get_average_star_review(): SongStars&lt;/span&gt;" style="text;strokeColor=none;fillColor=none;align=left;verticalAlign=top;spacingLeft=4;spacingRight=4;overflow=hidden;rotatable=0;points=[[0,0.5],[1,0.5]];portConstraint=eastwest;whiteSpace=wrap;html=1;" parent="x0EwZhFv20aRiwcRfnRt-56" vertex="1">
          <mxGeometry y="216" width="160" height="26" as="geometry" />
        </mxCell>
        <mxCell id="x0EwZhFv20aRiwcRfnRt-75" value="" style="endArrow=diamondThin;endFill=0;endSize=24;html=1;rounded=0;entryX=0.5;entryY=0;entryDx=0;entryDy=0;exitX=0.5;exitY=1.008;exitDx=0;exitDy=0;exitPerimeter=0;" parent="1" source="x0EwZhFv20aRiwcRfnRt-53" target="x0EwZhFv20aRiwcRfnRt-56" edge="1">
          <mxGeometry width="160" relative="1" as="geometry">
            <mxPoint x="-190" y="578" as="sourcePoint" />
            <mxPoint x="-30" y="578" as="targetPoint" />
          </mxGeometry>
        </mxCell>
        <mxCell id="x0EwZhFv20aRiwcRfnRt-76" value="" style="endArrow=diamondThin;endFill=1;endSize=24;html=1;rounded=0;exitX=1.008;exitY=0.761;exitDx=0;exitDy=0;exitPerimeter=0;entryX=0;entryY=0.761;entryDx=0;entryDy=0;entryPerimeter=0;" parent="1" source="x0EwZhFv20aRiwcRfnRt-42" target="PCdt31Q6n0yatBRkWtZ2-5" edge="1">
          <mxGeometry width="160" relative="1" as="geometry">
            <mxPoint x="-120" y="539" as="sourcePoint" />
            <mxPoint x="40" y="539" as="targetPoint" />
          </mxGeometry>
        </mxCell>
        <mxCell id="x0EwZhFv20aRiwcRfnRt-80" value="" style="endArrow=none;html=1;edgeStyle=orthogonalEdgeStyle;rounded=0;exitX=1.003;exitY=0.912;exitDx=0;exitDy=0;exitPerimeter=0;entryX=0.01;entryY=0.912;entryDx=0;entryDy=0;entryPerimeter=0;" parent="1" source="PCdt31Q6n0yatBRkWtZ2-5" target="K13tI4WdCBkM2zwI3fLA-3" edge="1">
          <mxGeometry relative="1" as="geometry">
            <mxPoint x="220" y="550" as="sourcePoint" />
            <mxPoint x="340" y="550" as="targetPoint" />
          </mxGeometry>
        </mxCell>
        <mxCell id="x0EwZhFv20aRiwcRfnRt-81" value="0..*" style="edgeLabel;resizable=0;html=1;align=left;verticalAlign=bottom;" parent="x0EwZhFv20aRiwcRfnRt-80" connectable="0" vertex="1">
          <mxGeometry x="-1" relative="1" as="geometry">
            <mxPoint x="3" as="offset" />
          </mxGeometry>
        </mxCell>
        <mxCell id="x0EwZhFv20aRiwcRfnRt-82" value="2" style="edgeLabel;resizable=0;html=1;align=right;verticalAlign=bottom;" parent="x0EwZhFv20aRiwcRfnRt-80" connectable="0" vertex="1">
          <mxGeometry x="1" relative="1" as="geometry">
            <mxPoint x="-3" as="offset" />
          </mxGeometry>
        </mxCell>
        <mxCell id="IFB0oqKAQAW6T9aksM-X-1" value="Chat" style="swimlane;fontStyle=1;align=center;verticalAlign=top;childLayout=stackLayout;horizontal=1;startSize=26;horizontalStack=0;resizeParent=1;resizeParentMax=0;resizeLast=0;collapsible=1;marginBottom=0;whiteSpace=wrap;html=1;" parent="1" vertex="1">
          <mxGeometry x="40" y="960" width="160" height="294" as="geometry">
            <mxRectangle x="40" y="960" width="70" height="30" as="alternateBounds" />
          </mxGeometry>
        </mxCell>
        <mxCell id="97uRlA_o4lkvg0xK0UDp-15" value="- chat_id" style="text;strokeColor=none;fillColor=none;align=left;verticalAlign=top;spacingLeft=4;spacingRight=4;overflow=hidden;rotatable=0;points=[[0,0.5],[1,0.5]];portConstraint=eastwest;whiteSpace=wrap;html=1;" parent="IFB0oqKAQAW6T9aksM-X-1" vertex="1">
          <mxGeometry y="26" width="160" height="26" as="geometry" />
        </mxCell>
        <mxCell id="IFB0oqKAQAW6T9aksM-X-2" value="- encryption_key: bytes" style="text;strokeColor=none;fillColor=none;align=left;verticalAlign=top;spacingLeft=4;spacingRight=4;overflow=hidden;rotatable=0;points=[[0,0.5],[1,0.5]];portConstraint=eastwest;whiteSpace=wrap;html=1;" parent="IFB0oqKAQAW6T9aksM-X-1" vertex="1">
          <mxGeometry y="52" width="160" height="26" as="geometry" />
        </mxCell>
        <mxCell id="IFB0oqKAQAW6T9aksM-X-5" value="- cipher: Fernet" style="text;strokeColor=none;fillColor=none;align=left;verticalAlign=top;spacingLeft=4;spacingRight=4;overflow=hidden;rotatable=0;points=[[0,0.5],[1,0.5]];portConstraint=eastwest;whiteSpace=wrap;html=1;" parent="IFB0oqKAQAW6T9aksM-X-1" vertex="1">
          <mxGeometry y="78" width="160" height="26" as="geometry" />
        </mxCell>
        <mxCell id="IFB0oqKAQAW6T9aksM-X-6" value="&lt;span style=&quot;text-wrap-mode: nowrap;&quot;&gt;- messages: list(Message)&lt;/span&gt;" style="text;strokeColor=none;fillColor=none;align=left;verticalAlign=top;spacingLeft=4;spacingRight=4;overflow=hidden;rotatable=0;points=[[0,0.5],[1,0.5]];portConstraint=eastwest;whiteSpace=wrap;html=1;" parent="IFB0oqKAQAW6T9aksM-X-1" vertex="1">
          <mxGeometry y="104" width="160" height="26" as="geometry" />
        </mxCell>
        <mxCell id="IFB0oqKAQAW6T9aksM-X-3" value="" style="line;strokeWidth=1;fillColor=none;align=left;verticalAlign=middle;spacingTop=-1;spacingLeft=3;spacingRight=3;rotatable=0;labelPosition=right;points=[];portConstraint=eastwest;strokeColor=inherit;" parent="IFB0oqKAQAW6T9aksM-X-1" vertex="1">
          <mxGeometry y="130" width="160" height="8" as="geometry" />
        </mxCell>
        <mxCell id="97uRlA_o4lkvg0xK0UDp-16" value="&lt;span style=&quot;text-wrap-mode: nowrap;&quot;&gt;+ get_chat_id(): int&lt;/span&gt;" style="text;strokeColor=none;fillColor=none;align=left;verticalAlign=top;spacingLeft=4;spacingRight=4;overflow=hidden;rotatable=0;points=[[0,0.5],[1,0.5]];portConstraint=eastwest;whiteSpace=wrap;html=1;" parent="IFB0oqKAQAW6T9aksM-X-1" vertex="1">
          <mxGeometry y="138" width="160" height="26" as="geometry" />
        </mxCell>
        <mxCell id="IFB0oqKAQAW6T9aksM-X-4" value="&lt;span style=&quot;text-wrap-mode: nowrap;&quot;&gt;+ get_encryption_key(): bytes&lt;/span&gt;" style="text;strokeColor=none;fillColor=none;align=left;verticalAlign=top;spacingLeft=4;spacingRight=4;overflow=hidden;rotatable=0;points=[[0,0.5],[1,0.5]];portConstraint=eastwest;whiteSpace=wrap;html=1;" parent="IFB0oqKAQAW6T9aksM-X-1" vertex="1">
          <mxGeometry y="164" width="160" height="26" as="geometry" />
        </mxCell>
        <mxCell id="IFB0oqKAQAW6T9aksM-X-7" value="&lt;span style=&quot;text-wrap-mode: nowrap;&quot;&gt;+ get_chiper(): Fernet&lt;/span&gt;" style="text;strokeColor=none;fillColor=none;align=left;verticalAlign=top;spacingLeft=4;spacingRight=4;overflow=hidden;rotatable=0;points=[[0,0.5],[1,0.5]];portConstraint=eastwest;whiteSpace=wrap;html=1;" parent="IFB0oqKAQAW6T9aksM-X-1" vertex="1">
          <mxGeometry y="190" width="160" height="26" as="geometry" />
        </mxCell>
        <mxCell id="IFB0oqKAQAW6T9aksM-X-8" value="&lt;span style=&quot;text-wrap-mode: nowrap;&quot;&gt;+ get_messages(): list(Message)&lt;/span&gt;" style="text;strokeColor=none;fillColor=none;align=left;verticalAlign=top;spacingLeft=4;spacingRight=4;overflow=hidden;rotatable=0;points=[[0,0.5],[1,0.5]];portConstraint=eastwest;whiteSpace=wrap;html=1;" parent="IFB0oqKAQAW6T9aksM-X-1" vertex="1">
          <mxGeometry y="216" width="160" height="26" as="geometry" />
        </mxCell>
        <mxCell id="97uRlA_o4lkvg0xK0UDp-5" value="&lt;span style=&quot;text-wrap-mode: nowrap;&quot;&gt;+ add_message(Message, SocialUser): void&lt;/span&gt;" style="text;strokeColor=none;fillColor=none;align=left;verticalAlign=top;spacingLeft=4;spacingRight=4;overflow=hidden;rotatable=0;points=[[0,0.5],[1,0.5]];portConstraint=eastwest;whiteSpace=wrap;html=1;" parent="IFB0oqKAQAW6T9aksM-X-1" vertex="1">
          <mxGeometry y="242" width="160" height="26" as="geometry" />
        </mxCell>
        <mxCell id="97uRlA_o4lkvg0xK0UDp-6" value="&lt;span style=&quot;text-wrap-mode: nowrap;&quot;&gt;+ decrypt_message(Message): str&lt;/span&gt;" style="text;strokeColor=none;fillColor=none;align=left;verticalAlign=top;spacingLeft=4;spacingRight=4;overflow=hidden;rotatable=0;points=[[0,0.5],[1,0.5]];portConstraint=eastwest;whiteSpace=wrap;html=1;" parent="IFB0oqKAQAW6T9aksM-X-1" vertex="1">
          <mxGeometry y="268" width="160" height="26" as="geometry" />
        </mxCell>
        <mxCell id="IFB0oqKAQAW6T9aksM-X-11" value="Message" style="swimlane;fontStyle=1;align=center;verticalAlign=top;childLayout=stackLayout;horizontal=1;startSize=26;horizontalStack=0;resizeParent=1;resizeParentMax=0;resizeLast=0;collapsible=1;marginBottom=0;whiteSpace=wrap;html=1;" parent="1" vertex="1">
          <mxGeometry x="321" y="960" width="160" height="190" as="geometry">
            <mxRectangle x="321" y="960" width="90" height="30" as="alternateBounds" />
          </mxGeometry>
        </mxCell>
        <mxCell id="IFB0oqKAQAW6T9aksM-X-12" value="- text: str" style="text;strokeColor=none;fillColor=none;align=left;verticalAlign=top;spacingLeft=4;spacingRight=4;overflow=hidden;rotatable=0;points=[[0,0.5],[1,0.5]];portConstraint=eastwest;whiteSpace=wrap;html=1;" parent="IFB0oqKAQAW6T9aksM-X-11" vertex="1">
          <mxGeometry y="26" width="160" height="26" as="geometry" />
        </mxCell>
        <mxCell id="IFB0oqKAQAW6T9aksM-X-15" value="- sender: SocialUser" style="text;strokeColor=none;fillColor=none;align=left;verticalAlign=top;spacingLeft=4;spacingRight=4;overflow=hidden;rotatable=0;points=[[0,0.5],[1,0.5]];portConstraint=eastwest;whiteSpace=wrap;html=1;" parent="IFB0oqKAQAW6T9aksM-X-11" vertex="1">
          <mxGeometry y="52" width="160" height="26" as="geometry" />
        </mxCell>
        <mxCell id="IFB0oqKAQAW6T9aksM-X-16" value="- time_stamp: datetime" style="text;strokeColor=none;fillColor=none;align=left;verticalAlign=top;spacingLeft=4;spacingRight=4;overflow=hidden;rotatable=0;points=[[0,0.5],[1,0.5]];portConstraint=eastwest;whiteSpace=wrap;html=1;" parent="IFB0oqKAQAW6T9aksM-X-11" vertex="1">
          <mxGeometry y="78" width="160" height="26" as="geometry" />
        </mxCell>
        <mxCell id="IFB0oqKAQAW6T9aksM-X-13" value="" style="line;strokeWidth=1;fillColor=none;align=left;verticalAlign=middle;spacingTop=-1;spacingLeft=3;spacingRight=3;rotatable=0;labelPosition=right;points=[];portConstraint=eastwest;strokeColor=inherit;" parent="IFB0oqKAQAW6T9aksM-X-11" vertex="1">
          <mxGeometry y="104" width="160" height="8" as="geometry" />
        </mxCell>
        <mxCell id="IFB0oqKAQAW6T9aksM-X-14" value="+ get_text(): str" style="text;strokeColor=none;fillColor=none;align=left;verticalAlign=top;spacingLeft=4;spacingRight=4;overflow=hidden;rotatable=0;points=[[0,0.5],[1,0.5]];portConstraint=eastwest;whiteSpace=wrap;html=1;" parent="IFB0oqKAQAW6T9aksM-X-11" vertex="1">
          <mxGeometry y="112" width="160" height="26" as="geometry" />
        </mxCell>
        <mxCell id="IFB0oqKAQAW6T9aksM-X-17" value="+ get_sender(): SocialUser" style="text;strokeColor=none;fillColor=none;align=left;verticalAlign=top;spacingLeft=4;spacingRight=4;overflow=hidden;rotatable=0;points=[[0,0.5],[1,0.5]];portConstraint=eastwest;whiteSpace=wrap;html=1;" parent="IFB0oqKAQAW6T9aksM-X-11" vertex="1">
          <mxGeometry y="138" width="160" height="26" as="geometry" />
        </mxCell>
        <mxCell id="IFB0oqKAQAW6T9aksM-X-18" value="&lt;span style=&quot;text-wrap-mode: nowrap;&quot;&gt;+ get_time_stamp(): datetime&lt;/span&gt;" style="text;strokeColor=none;fillColor=none;align=left;verticalAlign=top;spacingLeft=4;spacingRight=4;overflow=hidden;rotatable=0;points=[[0,0.5],[1,0.5]];portConstraint=eastwest;whiteSpace=wrap;html=1;" parent="IFB0oqKAQAW6T9aksM-X-11" vertex="1">
          <mxGeometry y="164" width="160" height="26" as="geometry" />
        </mxCell>
        <mxCell id="97uRlA_o4lkvg0xK0UDp-1" value="ChatHandler" style="swimlane;fontStyle=1;align=center;verticalAlign=top;childLayout=stackLayout;horizontal=1;startSize=26;horizontalStack=0;resizeParent=1;resizeParentMax=0;resizeLast=0;collapsible=1;marginBottom=0;whiteSpace=wrap;html=1;" parent="1" vertex="1">
          <mxGeometry x="-240" y="960" width="160" height="164" as="geometry">
            <mxRectangle x="-280" y="960" width="110" height="30" as="alternateBounds" />
          </mxGeometry>
        </mxCell>
        <mxCell id="97uRlA_o4lkvg0xK0UDp-2" value="- social_user: SocialUser" style="text;strokeColor=none;fillColor=none;align=left;verticalAlign=top;spacingLeft=4;spacingRight=4;overflow=hidden;rotatable=0;points=[[0,0.5],[1,0.5]];portConstraint=eastwest;whiteSpace=wrap;html=1;" parent="97uRlA_o4lkvg0xK0UDp-1" vertex="1">
          <mxGeometry y="26" width="160" height="26" as="geometry" />
        </mxCell>
        <mxCell id="97uRlA_o4lkvg0xK0UDp-3" value="" style="line;strokeWidth=1;fillColor=none;align=left;verticalAlign=middle;spacingTop=-1;spacingLeft=3;spacingRight=3;rotatable=0;labelPosition=right;points=[];portConstraint=eastwest;strokeColor=inherit;" parent="97uRlA_o4lkvg0xK0UDp-1" vertex="1">
          <mxGeometry y="52" width="160" height="8" as="geometry" />
        </mxCell>
        <mxCell id="97uRlA_o4lkvg0xK0UDp-12" value="&lt;span style=&quot;text-wrap-mode: nowrap;&quot;&gt;+ get_social_user(): SocialUser&lt;/span&gt;" style="text;strokeColor=none;fillColor=none;align=left;verticalAlign=top;spacingLeft=4;spacingRight=4;overflow=hidden;rotatable=0;points=[[0,0.5],[1,0.5]];portConstraint=eastwest;whiteSpace=wrap;html=1;" parent="97uRlA_o4lkvg0xK0UDp-1" vertex="1">
          <mxGeometry y="60" width="160" height="26" as="geometry" />
        </mxCell>
        <mxCell id="97uRlA_o4lkvg0xK0UDp-13" value="&lt;span style=&quot;text-wrap-mode: nowrap;&quot;&gt;+ start_chat(int): void&lt;/span&gt;" style="text;strokeColor=none;fillColor=none;align=left;verticalAlign=top;spacingLeft=4;spacingRight=4;overflow=hidden;rotatable=0;points=[[0,0.5],[1,0.5]];portConstraint=eastwest;whiteSpace=wrap;html=1;" parent="97uRlA_o4lkvg0xK0UDp-1" vertex="1">
          <mxGeometry y="86" width="160" height="26" as="geometry" />
        </mxCell>
        <mxCell id="97uRlA_o4lkvg0xK0UDp-14" value="&lt;span style=&quot;text-wrap-mode: nowrap;&quot;&gt;+ send_message(int, Message): void&lt;/span&gt;" style="text;strokeColor=none;fillColor=none;align=left;verticalAlign=top;spacingLeft=4;spacingRight=4;overflow=hidden;rotatable=0;points=[[0,0.5],[1,0.5]];portConstraint=eastwest;whiteSpace=wrap;html=1;" parent="97uRlA_o4lkvg0xK0UDp-1" vertex="1">
          <mxGeometry y="112" width="160" height="26" as="geometry" />
        </mxCell>
        <mxCell id="97uRlA_o4lkvg0xK0UDp-17" value="&lt;span style=&quot;text-wrap-mode: nowrap;&quot;&gt;+ receive_message(int, Message): void&lt;/span&gt;" style="text;strokeColor=none;fillColor=none;align=left;verticalAlign=top;spacingLeft=4;spacingRight=4;overflow=hidden;rotatable=0;points=[[0,0.5],[1,0.5]];portConstraint=eastwest;whiteSpace=wrap;html=1;" parent="97uRlA_o4lkvg0xK0UDp-1" vertex="1">
          <mxGeometry y="138" width="160" height="26" as="geometry" />
        </mxCell>
        <mxCell id="97uRlA_o4lkvg0xK0UDp-18" value="" style="endArrow=diamondThin;endFill=1;endSize=24;html=1;rounded=0;entryX=0.5;entryY=1;entryDx=0;entryDy=0;entryPerimeter=0;exitX=0.5;exitY=0;exitDx=0;exitDy=0;" parent="1" source="IFB0oqKAQAW6T9aksM-X-1" target="x0EwZhFv20aRiwcRfnRt-31" edge="1">
          <mxGeometry width="160" relative="1" as="geometry">
            <mxPoint x="40" y="880" as="sourcePoint" />
            <mxPoint x="200" y="880" as="targetPoint" />
          </mxGeometry>
        </mxCell>
        <mxCell id="97uRlA_o4lkvg0xK0UDp-19" value="" style="endArrow=diamondThin;endFill=1;endSize=24;html=1;rounded=0;entryX=0;entryY=0.5;entryDx=0;entryDy=0;exitX=0.5;exitY=0;exitDx=0;exitDy=0;" parent="1" source="97uRlA_o4lkvg0xK0UDp-1" target="x0EwZhFv20aRiwcRfnRt-29" edge="1">
          <mxGeometry width="160" relative="1" as="geometry">
            <mxPoint x="-50" y="950" as="sourcePoint" />
            <mxPoint x="110" y="950" as="targetPoint" />
            <Array as="points">
              <mxPoint x="-160" y="920" />
              <mxPoint x="-80" y="920" />
              <mxPoint x="-80" y="730" />
            </Array>
          </mxGeometry>
        </mxCell>
        <mxCell id="97uRlA_o4lkvg0xK0UDp-21" value="" style="endArrow=diamondThin;endFill=0;endSize=24;html=1;rounded=0;exitX=0;exitY=0.5;exitDx=0;exitDy=0;entryX=1;entryY=0.5;entryDx=0;entryDy=0;entryPerimeter=0;" parent="1" source="IFB0oqKAQAW6T9aksM-X-15" target="IFB0oqKAQAW6T9aksM-X-2" edge="1">
          <mxGeometry width="160" relative="1" as="geometry">
            <mxPoint x="320" y="1030" as="sourcePoint" />
            <mxPoint x="200" y="1030" as="targetPoint" />
          </mxGeometry>
        </mxCell>
        <mxCell id="97uRlA_o4lkvg0xK0UDp-22" value="PrivateChat" style="swimlane;fontStyle=1;align=center;verticalAlign=top;childLayout=stackLayout;horizontal=1;startSize=26;horizontalStack=0;resizeParent=1;resizeParentMax=0;resizeLast=0;collapsible=1;marginBottom=0;whiteSpace=wrap;html=1;" parent="1" vertex="1">
          <mxGeometry x="-120" y="1320" width="160" height="138" as="geometry">
            <mxRectangle x="-120" y="1320" width="100" height="30" as="alternateBounds" />
          </mxGeometry>
        </mxCell>
        <mxCell id="97uRlA_o4lkvg0xK0UDp-23" value="- user1: SocialUser" style="text;strokeColor=none;fillColor=none;align=left;verticalAlign=top;spacingLeft=4;spacingRight=4;overflow=hidden;rotatable=0;points=[[0,0.5],[1,0.5]];portConstraint=eastwest;whiteSpace=wrap;html=1;" parent="97uRlA_o4lkvg0xK0UDp-22" vertex="1">
          <mxGeometry y="26" width="160" height="26" as="geometry" />
        </mxCell>
        <mxCell id="97uRlA_o4lkvg0xK0UDp-27" value="- user2: SocialUser" style="text;strokeColor=none;fillColor=none;align=left;verticalAlign=top;spacingLeft=4;spacingRight=4;overflow=hidden;rotatable=0;points=[[0,0.5],[1,0.5]];portConstraint=eastwest;whiteSpace=wrap;html=1;" parent="97uRlA_o4lkvg0xK0UDp-22" vertex="1">
          <mxGeometry y="52" width="160" height="26" as="geometry" />
        </mxCell>
        <mxCell id="97uRlA_o4lkvg0xK0UDp-24" value="" style="line;strokeWidth=1;fillColor=none;align=left;verticalAlign=middle;spacingTop=-1;spacingLeft=3;spacingRight=3;rotatable=0;labelPosition=right;points=[];portConstraint=eastwest;strokeColor=inherit;" parent="97uRlA_o4lkvg0xK0UDp-22" vertex="1">
          <mxGeometry y="78" width="160" height="8" as="geometry" />
        </mxCell>
        <mxCell id="97uRlA_o4lkvg0xK0UDp-25" value="+ get_user1(): SocialUser" style="text;strokeColor=none;fillColor=none;align=left;verticalAlign=top;spacingLeft=4;spacingRight=4;overflow=hidden;rotatable=0;points=[[0,0.5],[1,0.5]];portConstraint=eastwest;whiteSpace=wrap;html=1;" parent="97uRlA_o4lkvg0xK0UDp-22" vertex="1">
          <mxGeometry y="86" width="160" height="26" as="geometry" />
        </mxCell>
        <mxCell id="97uRlA_o4lkvg0xK0UDp-28" value="+ get_user2(): SocialUser" style="text;strokeColor=none;fillColor=none;align=left;verticalAlign=top;spacingLeft=4;spacingRight=4;overflow=hidden;rotatable=0;points=[[0,0.5],[1,0.5]];portConstraint=eastwest;whiteSpace=wrap;html=1;" parent="97uRlA_o4lkvg0xK0UDp-22" vertex="1">
          <mxGeometry y="112" width="160" height="26" as="geometry" />
        </mxCell>
        <mxCell id="97uRlA_o4lkvg0xK0UDp-26" value="" style="endArrow=block;endSize=16;endFill=0;html=1;rounded=0;entryX=0.255;entryY=0.954;entryDx=0;entryDy=0;entryPerimeter=0;exitX=0.75;exitY=0;exitDx=0;exitDy=0;" parent="1" source="97uRlA_o4lkvg0xK0UDp-22" target="97uRlA_o4lkvg0xK0UDp-6" edge="1">
          <mxGeometry width="160" relative="1" as="geometry">
            <mxPoint x="-9" y="1320" as="sourcePoint" />
            <mxPoint x="-10" y="1211" as="targetPoint" />
            <Array as="points">
              <mxPoint y="1280" />
              <mxPoint x="80" y="1280" />
            </Array>
          </mxGeometry>
        </mxCell>
        <mxCell id="97uRlA_o4lkvg0xK0UDp-29" value="GroupChat" style="swimlane;fontStyle=1;align=center;verticalAlign=top;childLayout=stackLayout;horizontal=1;startSize=26;horizontalStack=0;resizeParent=1;resizeParentMax=0;resizeLast=0;collapsible=1;marginBottom=0;whiteSpace=wrap;html=1;" parent="1" vertex="1">
          <mxGeometry x="200" y="1320" width="160" height="190" as="geometry">
            <mxRectangle x="200" y="1320" width="100" height="30" as="alternateBounds" />
          </mxGeometry>
        </mxCell>
        <mxCell id="97uRlA_o4lkvg0xK0UDp-30" value="- creator: SocialUser" style="text;strokeColor=none;fillColor=none;align=left;verticalAlign=top;spacingLeft=4;spacingRight=4;overflow=hidden;rotatable=0;points=[[0,0.5],[1,0.5]];portConstraint=eastwest;whiteSpace=wrap;html=1;" parent="97uRlA_o4lkvg0xK0UDp-29" vertex="1">
          <mxGeometry y="26" width="160" height="26" as="geometry" />
        </mxCell>
        <mxCell id="97uRlA_o4lkvg0xK0UDp-31" value="- users: list(SocialUser)" style="text;strokeColor=none;fillColor=none;align=left;verticalAlign=top;spacingLeft=4;spacingRight=4;overflow=hidden;rotatable=0;points=[[0,0.5],[1,0.5]];portConstraint=eastwest;whiteSpace=wrap;html=1;" parent="97uRlA_o4lkvg0xK0UDp-29" vertex="1">
          <mxGeometry y="52" width="160" height="26" as="geometry" />
        </mxCell>
        <mxCell id="97uRlA_o4lkvg0xK0UDp-35" value="&lt;span style=&quot;text-wrap-mode: nowrap;&quot;&gt;- managers: dictionary{int, bool}&lt;/span&gt;" style="text;strokeColor=none;fillColor=none;align=left;verticalAlign=top;spacingLeft=4;spacingRight=4;overflow=hidden;rotatable=0;points=[[0,0.5],[1,0.5]];portConstraint=eastwest;whiteSpace=wrap;html=1;" parent="97uRlA_o4lkvg0xK0UDp-29" vertex="1">
          <mxGeometry y="78" width="160" height="26" as="geometry" />
        </mxCell>
        <mxCell id="97uRlA_o4lkvg0xK0UDp-32" value="" style="line;strokeWidth=1;fillColor=none;align=left;verticalAlign=middle;spacingTop=-1;spacingLeft=3;spacingRight=3;rotatable=0;labelPosition=right;points=[];portConstraint=eastwest;strokeColor=inherit;" parent="97uRlA_o4lkvg0xK0UDp-29" vertex="1">
          <mxGeometry y="104" width="160" height="8" as="geometry" />
        </mxCell>
        <mxCell id="97uRlA_o4lkvg0xK0UDp-33" value="+ get_creator(): SocialUser" style="text;strokeColor=none;fillColor=none;align=left;verticalAlign=top;spacingLeft=4;spacingRight=4;overflow=hidden;rotatable=0;points=[[0,0.5],[1,0.5]];portConstraint=eastwest;whiteSpace=wrap;html=1;" parent="97uRlA_o4lkvg0xK0UDp-29" vertex="1">
          <mxGeometry y="112" width="160" height="26" as="geometry" />
        </mxCell>
        <mxCell id="97uRlA_o4lkvg0xK0UDp-34" value="&lt;span style=&quot;text-wrap-mode: nowrap;&quot;&gt;+ get_users(): list(SocialUser)&lt;/span&gt;" style="text;strokeColor=none;fillColor=none;align=left;verticalAlign=top;spacingLeft=4;spacingRight=4;overflow=hidden;rotatable=0;points=[[0,0.5],[1,0.5]];portConstraint=eastwest;whiteSpace=wrap;html=1;" parent="97uRlA_o4lkvg0xK0UDp-29" vertex="1">
          <mxGeometry y="138" width="160" height="26" as="geometry" />
        </mxCell>
        <mxCell id="97uRlA_o4lkvg0xK0UDp-36" value="&lt;span style=&quot;text-wrap-mode: nowrap;&quot;&gt;+ get_managers(): dictionary{int, bool}&lt;/span&gt;" style="text;strokeColor=none;fillColor=none;align=left;verticalAlign=top;spacingLeft=4;spacingRight=4;overflow=hidden;rotatable=0;points=[[0,0.5],[1,0.5]];portConstraint=eastwest;whiteSpace=wrap;html=1;" parent="97uRlA_o4lkvg0xK0UDp-29" vertex="1">
          <mxGeometry y="164" width="160" height="26" as="geometry" />
        </mxCell>
        <mxCell id="97uRlA_o4lkvg0xK0UDp-37" value="" style="endArrow=block;endSize=16;endFill=0;html=1;rounded=0;entryX=0.765;entryY=1;entryDx=0;entryDy=0;entryPerimeter=0;exitX=0.25;exitY=0;exitDx=0;exitDy=0;" parent="1" source="97uRlA_o4lkvg0xK0UDp-29" target="97uRlA_o4lkvg0xK0UDp-6" edge="1">
          <mxGeometry width="160" relative="1" as="geometry">
            <mxPoint x="281" y="1320" as="sourcePoint" />
            <mxPoint x="160" y="1253" as="targetPoint" />
            <Array as="points">
              <mxPoint x="240" y="1280" />
              <mxPoint x="161" y="1280" />
            </Array>
          </mxGeometry>
        </mxCell>
        <mxCell id="97uRlA_o4lkvg0xK0UDp-41" value="" style="endArrow=none;html=1;edgeStyle=orthogonalEdgeStyle;rounded=0;entryX=0;entryY=0.5;entryDx=0;entryDy=0;exitX=0.25;exitY=0;exitDx=0;exitDy=0;" parent="1" source="97uRlA_o4lkvg0xK0UDp-22" target="x0EwZhFv20aRiwcRfnRt-30" edge="1">
          <mxGeometry relative="1" as="geometry">
            <mxPoint x="10" y="1180" as="sourcePoint" />
            <mxPoint x="170" y="1180" as="targetPoint" />
            <Array as="points">
              <mxPoint x="-60" y="1320" />
              <mxPoint x="-60" y="781" />
            </Array>
          </mxGeometry>
        </mxCell>
        <mxCell id="97uRlA_o4lkvg0xK0UDp-42" value="2" style="edgeLabel;resizable=0;html=1;align=left;verticalAlign=bottom;" parent="97uRlA_o4lkvg0xK0UDp-41" connectable="0" vertex="1">
          <mxGeometry x="-1" relative="1" as="geometry">
            <mxPoint y="-10" as="offset" />
          </mxGeometry>
        </mxCell>
        <mxCell id="97uRlA_o4lkvg0xK0UDp-43" value="0..*" style="edgeLabel;resizable=0;html=1;align=right;verticalAlign=bottom;" parent="97uRlA_o4lkvg0xK0UDp-41" connectable="0" vertex="1">
          <mxGeometry x="1" relative="1" as="geometry">
            <mxPoint x="-3" as="offset" />
          </mxGeometry>
        </mxCell>
        <mxCell id="97uRlA_o4lkvg0xK0UDp-44" value="" style="endArrow=none;html=1;edgeStyle=orthogonalEdgeStyle;rounded=0;exitX=1;exitY=0.5;exitDx=0;exitDy=0;entryX=0.631;entryY=0.011;entryDx=0;entryDy=0;entryPerimeter=0;" parent="1" source="x0EwZhFv20aRiwcRfnRt-30" target="97uRlA_o4lkvg0xK0UDp-29" edge="1">
          <mxGeometry relative="1" as="geometry">
            <mxPoint x="140" y="1180" as="sourcePoint" />
            <mxPoint x="300" y="1180" as="targetPoint" />
          </mxGeometry>
        </mxCell>
        <mxCell id="97uRlA_o4lkvg0xK0UDp-45" value="0..*" style="edgeLabel;resizable=0;html=1;align=left;verticalAlign=bottom;" parent="97uRlA_o4lkvg0xK0UDp-44" connectable="0" vertex="1">
          <mxGeometry x="-1" relative="1" as="geometry" />
        </mxCell>
        <mxCell id="97uRlA_o4lkvg0xK0UDp-46" value="1..*" style="edgeLabel;resizable=0;html=1;align=right;verticalAlign=bottom;" parent="97uRlA_o4lkvg0xK0UDp-44" connectable="0" vertex="1">
          <mxGeometry x="1" relative="1" as="geometry">
            <mxPoint x="39" y="-12" as="offset" />
          </mxGeometry>
        </mxCell>
      </root>
    </mxGraphModel>
  </diagram>
</mxfile>
